<svg viewBox="0 0 1024 1024" xmlns="http://www.w3.org/2000/svg" width="20" height="20" fill="#1D1D1D">
    <path d="M170.656 256A85.344 85.344 0 01256 170.656h42.656a42.656 42.656 0 000-85.312H256A170.656 170.656 0 0085.344 256v554.656A170.656 170.656 0 00256 981.312h512a170.656 170.656 0 00170.656-170.656V256A170.656 170.656 0 00768 85.344h-48.064a42.656 42.656 0 000 85.312H768A85.344 85.344 0 01853.344 256v554.656A85.344 85.344 0 01768 896H256a85.344 85.344 0 01-85.344-85.344V256zM511.84 85.344c23.552 0 42.656 19.104 42.656 42.656v494.496l119.328-119.328a42.656 42.656 0 1160.352 60.352l-192 192a42.624 42.624 0 01-30.272 12.512h-.096a42.56 42.56 0 01-32.352-14.848L289.824 563.552a42.656 42.656 0 1160.352-60.352l119.008 119.008V128.064c0-23.552 19.104-42.656 42.656-42.656z"/>
</svg>
