<svg viewBox="0 0 1024 1024" xmlns="http://www.w3.org/2000/svg" width="20" height="20" fill="#1D1D1D"><path d="M554.656 85.312a42.656 42.656 0 00-85.312 0v64a42.656 42.656 0 0085.312 0v-64zm-374.56 94.784a42.656 42.656 0 0160.352 0l45.248 45.248a42.656 42.656 0 11-60.352 60.352l-45.248-45.248a42.656 42.656 0 010-60.352zM42.656 512c0-23.552 19.104-42.656 42.656-42.656h64a42.656 42.656 0 010 85.312h-64A42.656 42.656 0 0142.656 512zm243.072 286.592a42.656 42.656 0 10-60.352-60.352l-45.248 45.248a42.656 42.656 0 1060.352 60.352l45.248-45.248zm452.544-60.256a42.656 42.656 0 0160.352 0l45.248 45.248a42.656 42.656 0 11-60.352 60.352l-45.248-45.248a42.656 42.656 0 010-60.352zm136.384-269.024a42.656 42.656 0 000 85.312h64a42.656 42.656 0 000-85.312h-64zM843.872 180.16a42.656 42.656 0 010 60.352l-45.248 45.248a42.656 42.656 0 11-60.352-60.352l45.248-45.248a42.656 42.656 0 0160.352 0z"></path><path d="M225.536 512A286.496 286.496 0 11512 798.496 286.464 286.464 0 01225.536 512zM512 310.848a201.152 201.152 0 100 402.304 201.152 201.152 0 000-402.304zm42.656 563.872a42.656 42.656 0 00-85.312 0v64a42.656 42.656 0 0085.312 0v-64z"/></svg>
