<svg width="237" height="62"  xmlns="http://www.w3.org/2000/svg" viewBox="0 0 237 62" fill="none">
    <path fill-rule="evenodd" clip-rule="evenodd"
          d="M226.625 18.93C233.454 16.9667 235.315 14.7938 235.315 8.79296C235.315 4.34567 233.349 -4.28571e-05 224.97 -4.28571e-05C217.107 -4.28571e-05 214.935 3.51639 214.625 8.79296C214.625 9.41482 215.039 9.82753 215.661 9.82753H219.488C220.211 9.82753 220.522 9.51853 220.626 8.79296C220.937 5.89624 222.693 5.17196 224.97 5.17196C227.451 5.17196 229.418 6.00081 229.418 8.79296C229.418 12.6218 227.971 12.9308 221.866 14.7938C215.452 16.6547 213.591 19.5505 213.591 24.3107V28.4481C213.591 29.0691 213.902 29.4818 214.625 29.4818H233.245C233.866 29.4818 234.279 29.1715 234.279 28.4481V25.3448C234.279 24.621 233.866 24.3107 233.245 24.3107H219.488C219.488 21.5172 220.937 20.6884 226.625 18.93Z"
          fill="#000000"/>
    <path fill-rule="evenodd" clip-rule="evenodd"
          d="M206.332 24.3105V1.24097C206.332 0.517543 205.815 0.205971 205.091 0.414257L195.988 3.82826C195.47 4.03397 195.16 4.44797 195.16 4.96569V8.58497C195.16 9.3114 195.677 9.61954 196.401 9.41511L200.539 7.83583V24.3105H195.16C194.436 24.3105 194.125 24.725 194.125 25.3447V28.448C194.125 29.0694 194.436 29.4817 195.16 29.4817H209.643C210.263 29.4817 210.677 29.1718 210.677 28.448V25.3447C210.677 24.6213 210.263 24.3105 209.643 24.3105H206.332Z"
          fill="#000000"/>
    <path fill-rule="evenodd" clip-rule="evenodd"
          d="M183.452 18.93C190.28 16.9667 192.143 14.7938 192.143 8.79296C192.143 4.34567 190.176 -4.28571e-05 181.797 -4.28571e-05C173.936 -4.28571e-05 171.762 3.51639 171.452 8.79296C171.452 9.41482 171.866 9.82753 172.488 9.82753H176.315C177.038 9.82753 177.35 9.51853 177.452 8.79296C177.764 5.89624 179.522 5.17196 181.797 5.17196C184.281 5.17196 186.246 6.00081 186.246 8.79296C186.246 12.6218 184.798 12.9308 178.694 14.7938C172.281 16.6547 170.418 19.5505 170.418 24.3107V28.4481C170.418 29.0691 170.729 29.4818 171.452 29.4818H190.073C190.694 29.4818 191.107 29.1715 191.107 28.4481V25.3448C191.107 24.621 190.694 24.3107 190.073 24.3107H176.315C176.315 21.5172 177.764 20.6884 183.452 18.93Z"
          fill="#000000"/>
    <path fill-rule="evenodd" clip-rule="evenodd"
          d="M124.64 1.55169V13.1385L125.008 18.9345L114.916 1.24011C114.607 0.724543 114.296 0.516257 113.674 0.516257H109.744C109.02 0.516257 108.709 0.930686 108.709 1.55169V28.448C108.709 29.0694 109.02 29.4817 109.744 29.4817H113.468C114.089 29.4817 114.501 29.0694 114.501 28.448V16.8611L114.135 11.0643L124.225 28.7587C124.537 29.2751 124.847 29.4817 125.467 29.4817H129.398C130.019 29.4817 130.433 29.1718 130.433 28.448V1.55169C130.433 0.828257 130.019 0.516257 129.398 0.516257H125.675C124.951 0.516257 124.64 0.828257 124.64 1.55169Z"
          fill="#000000"/>
    <path fill-rule="evenodd" clip-rule="evenodd"
          d="M103.123 28.4481V1.55181C103.123 0.827957 102.709 0.516386 102.088 0.516386H98.364C97.6402 0.516386 97.3295 0.930386 97.3295 1.55181V28.4481C97.3295 29.0691 97.6402 29.4818 98.364 29.4818H102.088C102.709 29.4818 103.123 29.0691 103.123 28.4481Z"
          fill="#000000"/>
    <path fill-rule="evenodd" clip-rule="evenodd"
          d="M57.4001 7.27697L61.4338 16.2401C61.6412 16.8611 62.0531 17.0694 62.5717 17.0694H66.3997C67.2268 17.0694 67.5358 16.5521 67.2268 15.8278L60.7091 1.34383C60.5025 0.724543 60.0881 0.516686 59.5717 0.516686H55.2277C54.7095 0.516686 54.2964 0.724543 54.0885 1.34383L47.5717 15.8278C47.2614 16.5521 47.5717 17.0694 48.3988 17.0694H52.2264C52.7441 17.0694 53.1577 16.8611 53.3647 16.2401L57.4001 7.27697Z"
          fill="#00a7e1"/>
    <path fill-rule="evenodd" clip-rule="evenodd"
          d="M34.2259 13.3447H30.1922V5.6883H34.2259C37.7436 5.6883 39.193 6.72459 39.193 9.51759C39.193 12.3089 37.7436 13.3447 34.2259 13.3447ZM40.1565 17.6446C44.3063 16.112 45.0885 12.7846 45.0885 9.51759C45.0885 5.06901 43.6412 0.5163 34.2259 0.5163H25.435C24.7095 0.5163 24.3987 0.930729 24.3987 1.55173V28.448C24.3987 29.069 24.7095 29.4817 25.435 29.4817H29.1576C29.7786 29.4817 30.1922 29.069 30.1922 28.448V18.5159L34.519 18.5154L38.7782 28.6554C38.9852 29.2752 39.3987 29.4817 39.9169 29.4817H43.7432C44.5725 29.4817 44.881 28.9644 44.5725 28.2406L40.1565 17.6446Z"
          fill="#000000"/>
    <path fill-rule="evenodd" clip-rule="evenodd"
          d="M20.0545 0.516471H1.43438C0.709241 0.516471 0.399384 0.828043 0.399384 1.5519V4.65433C0.399384 5.27447 0.813384 5.68847 1.43438 5.68847H7.84795V28.4482C7.84795 29.0692 8.15824 29.4819 8.8821 29.4819H12.6068C13.2274 29.4819 13.641 29.0692 13.641 28.4482V5.68847H20.0545C20.6747 5.68847 21.0882 5.27447 21.0882 4.65433V1.5519C21.0882 0.828043 20.6747 0.516471 20.0545 0.516471Z"
          fill="#000000"/>
    <path fill-rule="evenodd" clip-rule="evenodd"
          d="M156.192 13.9646H147.399C146.677 13.9646 146.365 14.2753 146.365 15V18.1046C146.365 18.7234 146.677 19.1383 147.399 19.1383H151.331V20.1716C151.331 23.9983 149.88 24.828 146.365 24.828C142.848 24.828 141.399 23.9983 141.399 20.1716V9.82757C141.399 5.99957 142.848 5.172 146.365 5.172C149.571 5.172 151.019 5.89629 151.331 8.79214C151.331 9.51771 151.64 9.82757 152.364 9.82757H156.192C156.813 9.82757 157.226 9.414 157.226 8.79214C157.019 3.51643 155.158 0 146.365 0C136.951 0 135.503 4.03286 135.503 9.51771V20.481C135.503 25.9659 136.951 30 146.365 30C155.778 30 157.226 25.9659 157.226 20.481V15C157.226 14.2753 156.813 13.9646 156.192 13.9646Z"
          fill="#000000"/>
    <path fill-rule="evenodd" clip-rule="evenodd"
          d="M86.2617 19.654C86.2617 23.4825 84.8131 24.3105 81.2954 24.3105H77.2608V5.6886H81.2954C84.8131 5.6886 86.2617 6.51746 86.2617 10.3446V19.654ZM81.2954 0.5166H72.5024C71.7785 0.5166 71.4683 0.9306 71.4683 1.5516V28.4483C71.4683 29.0693 71.7785 29.482 72.5024 29.482H81.2954C90.709 29.482 92.1567 25.4479 92.1567 19.966V10.0339C92.1567 4.55074 90.709 0.5166 81.2954 0.5166Z"
          fill="#000000"/>
    <path d="M225.807 61.3815C225.689 61.3815 225.587 61.3375 225.499 61.2496C225.411 61.1616 225.367 61.059 225.367 60.9418C225.367 60.8832 225.374 60.8245 225.389 60.7659C225.403 60.7073 225.433 60.634 225.477 60.5461L227.17 56.523L222.971 46.6081C222.897 46.4323 222.861 46.3077 222.861 46.2344C222.861 46.1025 222.905 45.9926 222.993 45.9047C223.08 45.8167 223.19 45.7728 223.322 45.7728H224.4C224.546 45.7728 224.663 45.8094 224.751 45.8827C224.839 45.956 224.898 46.0439 224.927 46.1465L228.269 54.1487L231.698 46.1465C231.742 46.0439 231.801 45.956 231.874 45.8827C231.962 45.8094 232.087 45.7728 232.248 45.7728H233.281C233.413 45.7728 233.523 45.8167 233.611 45.9047C233.699 45.9926 233.743 46.0952 233.743 46.2124C233.743 46.2857 233.706 46.4176 233.633 46.6081L227.389 61.0077C227.345 61.1103 227.279 61.1983 227.192 61.2715C227.118 61.3448 227.001 61.3815 226.84 61.3815H225.807Z"
          fill="#000000"/>
    <path d="M215.395 57.2482C214.662 57.2482 213.996 57.1016 213.395 56.8085C212.794 56.5154 212.31 56.1197 211.944 55.6214C211.577 55.1231 211.394 54.5588 211.394 53.9286C211.394 52.9173 211.804 52.1112 212.625 51.5103C213.446 50.9094 214.516 50.5137 215.835 50.3232L219.111 49.8615V49.224C219.111 48.5205 218.905 47.9709 218.495 47.5752C218.099 47.1795 217.447 46.9816 216.538 46.9816C215.879 46.9816 215.344 47.1135 214.934 47.3773C214.538 47.6411 214.259 47.9782 214.098 48.3886C214.01 48.6084 213.856 48.7184 213.636 48.7184H212.647C212.486 48.7184 212.361 48.6744 212.273 48.5865C212.2 48.4839 212.164 48.3666 212.164 48.2347C212.164 48.0149 212.244 47.7437 212.405 47.4213C212.581 47.0989 212.845 46.7838 213.197 46.476C213.549 46.1682 213.996 45.9117 214.538 45.7065C215.095 45.4867 215.769 45.3768 216.56 45.3768C217.44 45.3768 218.18 45.494 218.781 45.7285C219.382 45.9484 219.851 46.2488 220.188 46.6299C220.539 47.0109 220.789 47.4433 220.935 47.9269C221.096 48.4106 221.177 48.9016 221.177 49.3999V56.5227C221.177 56.6693 221.126 56.7938 221.023 56.8964C220.935 56.9844 220.818 57.0283 220.671 57.0283H219.66C219.499 57.0283 219.374 56.9844 219.286 56.8964C219.198 56.7938 219.154 56.6693 219.154 56.5227V55.5774C218.964 55.8412 218.707 56.105 218.385 56.3688C218.063 56.618 217.66 56.8305 217.176 57.0064C216.692 57.1676 216.099 57.2482 215.395 57.2482ZM215.857 55.5994C216.458 55.5994 217.007 55.4748 217.506 55.2256C218.004 54.9618 218.392 54.5588 218.671 54.0165C218.964 53.4742 219.111 52.7927 219.111 51.972V51.3564L216.56 51.7302C215.52 51.8767 214.736 52.1259 214.208 52.4776C213.68 52.8147 213.417 53.2471 213.417 53.7747C213.417 54.1851 213.534 54.5295 213.768 54.808C214.018 55.0718 214.325 55.2696 214.692 55.4015C215.073 55.5334 215.461 55.5994 215.857 55.5994Z"
          fill="#000000"/>
    <path d="M203.31 57.2482C202.504 57.2482 201.808 57.109 201.221 56.8305C200.635 56.5374 200.152 56.149 199.77 55.6653C199.404 55.167 199.126 54.6028 198.935 53.9726C198.759 53.3423 198.657 52.6755 198.627 51.972C198.613 51.7375 198.605 51.5177 198.605 51.3125C198.605 51.1073 198.613 50.8875 198.627 50.653C198.657 49.9641 198.759 49.3046 198.935 48.6744C199.126 48.0442 199.404 47.4799 199.77 46.9816C200.152 46.4833 200.635 46.0949 201.221 45.8165C201.808 45.5233 202.504 45.3768 203.31 45.3768C204.175 45.3768 204.893 45.5307 205.464 45.8384C206.036 46.1462 206.505 46.5273 206.871 46.9816V41.9253C206.871 41.7787 206.915 41.6615 207.003 41.5735C207.106 41.4709 207.23 41.4196 207.377 41.4196H208.432C208.579 41.4196 208.696 41.4709 208.784 41.5735C208.887 41.6615 208.938 41.7787 208.938 41.9253V56.5227C208.938 56.6693 208.887 56.7939 208.784 56.8964C208.696 56.9844 208.579 57.0283 208.432 57.0283H207.443C207.282 57.0283 207.157 56.9844 207.069 56.8964C206.981 56.7939 206.937 56.6693 206.937 56.5227V55.5994C206.571 56.0684 206.095 56.4641 205.508 56.7865C204.922 57.0943 204.189 57.2482 203.31 57.2482ZM203.772 55.4675C204.504 55.4675 205.091 55.2989 205.53 54.9618C205.97 54.6248 206.3 54.1997 206.52 53.6868C206.739 53.1591 206.857 52.6242 206.871 52.0819C206.886 51.8474 206.893 51.569 206.893 51.2465C206.893 50.9094 206.886 50.6236 206.871 50.3891C206.857 49.8762 206.732 49.3706 206.498 48.8722C206.278 48.3739 205.941 47.9636 205.486 47.6411C205.047 47.3187 204.475 47.1575 203.772 47.1575C203.024 47.1575 202.431 47.326 201.991 47.6631C201.551 47.9856 201.236 48.4179 201.046 48.9602C200.855 49.4878 200.745 50.0594 200.716 50.6749C200.701 51.1 200.701 51.525 200.716 51.95C200.745 52.5656 200.855 53.1445 201.046 53.6868C201.236 54.2144 201.551 54.6467 201.991 54.9838C202.431 55.3063 203.024 55.4675 203.772 55.4675Z"
          fill="#000000"/>
    <path d="M184.216 61.2053C184.099 61.2053 183.996 61.1613 183.908 61.0734C183.82 60.9855 183.776 60.8829 183.776 60.7656C183.776 60.707 183.784 60.6484 183.798 60.5898C183.813 60.5311 183.842 60.4579 183.886 60.3699L185.579 56.3468L181.38 46.432C181.307 46.2561 181.27 46.1316 181.27 46.0583C181.27 45.9264 181.314 45.8164 181.402 45.7285C181.49 45.6406 181.6 45.5966 181.732 45.5966H182.809C182.956 45.5966 183.073 45.6332 183.161 45.7065C183.249 45.7798 183.307 45.8677 183.337 45.9703L186.678 53.9725L190.108 45.9703C190.152 45.8677 190.21 45.7798 190.284 45.7065C190.372 45.6332 190.496 45.5966 190.657 45.5966H191.691C191.823 45.5966 191.932 45.6406 192.02 45.7285C192.108 45.8164 192.152 45.919 192.152 46.0363C192.152 46.1096 192.116 46.2415 192.042 46.432L185.799 60.8316C185.755 60.9342 185.689 61.0221 185.601 61.0954C185.528 61.1687 185.411 61.2053 185.249 61.2053H184.216Z"
          fill="#000000"/>
    <path d="M174.37 57.0283C174.223 57.0283 174.099 56.9844 173.996 56.8964C173.908 56.7938 173.864 56.6693 173.864 56.5227V46.1242C173.864 45.9777 173.908 45.8531 173.996 45.7505C174.099 45.6479 174.223 45.5966 174.37 45.5966H175.381C175.528 45.5966 175.652 45.6479 175.755 45.7505C175.857 45.8531 175.909 45.9777 175.909 46.1242V47.0915C176.202 46.5932 176.605 46.2195 177.118 45.9703C177.631 45.7212 178.246 45.5966 178.964 45.5966H179.844C179.99 45.5966 180.108 45.6479 180.196 45.7505C180.284 45.8384 180.327 45.9557 180.327 46.1022V47.0036C180.327 47.1501 180.284 47.2674 180.196 47.3553C180.108 47.4433 179.99 47.4872 179.844 47.4872H178.525C177.733 47.4872 177.11 47.7217 176.656 48.1907C176.202 48.6451 175.975 49.2679 175.975 50.0594V56.5227C175.975 56.6693 175.923 56.7938 175.821 56.8964C175.718 56.9844 175.594 57.0283 175.447 57.0283H174.37Z"
          fill="#000000"/>
    <path d="M166.113 57.2482C164.604 57.2482 163.402 56.7865 162.508 55.8632C161.614 54.9252 161.123 53.6501 161.035 52.038C161.02 51.8474 161.013 51.6056 161.013 51.3125C161.013 51.0047 161.02 50.7555 161.035 50.565C161.093 49.5244 161.335 48.6158 161.76 47.839C162.185 47.0476 162.764 46.4393 163.497 46.0143C164.245 45.5893 165.117 45.3768 166.113 45.3768C167.227 45.3768 168.158 45.6113 168.905 46.0803C169.667 46.5493 170.246 47.2161 170.642 48.0808C171.038 48.9455 171.235 49.9568 171.235 51.1146V51.4884C171.235 51.6496 171.184 51.7741 171.082 51.8621C170.994 51.95 170.876 51.994 170.73 51.994H163.123C163.123 52.0086 163.123 52.038 163.123 52.0819C163.123 52.1259 163.123 52.1625 163.123 52.1918C163.153 52.7927 163.285 53.357 163.519 53.8846C163.754 54.3976 164.091 54.8153 164.53 55.1377C164.97 55.4601 165.498 55.6214 166.113 55.6214C166.641 55.6214 167.08 55.5408 167.432 55.3795C167.784 55.2183 168.07 55.0424 168.29 54.8519C168.509 54.6467 168.656 54.4928 168.729 54.3903C168.861 54.1997 168.964 54.0898 169.037 54.0605C169.11 54.0165 169.228 53.9945 169.389 53.9945H170.444C170.591 53.9945 170.708 54.0385 170.796 54.1264C170.898 54.1997 170.942 54.3096 170.928 54.4562C170.913 54.676 170.796 54.9472 170.576 55.2696C170.356 55.5774 170.041 55.8852 169.631 56.1929C169.22 56.5007 168.722 56.7572 168.136 56.9624C167.549 57.1529 166.875 57.2482 166.113 57.2482ZM163.123 50.4771H169.147V50.4111C169.147 49.7516 169.022 49.1654 168.773 48.6524C168.539 48.1394 168.194 47.7364 167.74 47.4433C167.286 47.1355 166.743 46.9816 166.113 46.9816C165.483 46.9816 164.941 47.1355 164.486 47.4433C164.047 47.7364 163.71 48.1394 163.475 48.6524C163.241 49.1654 163.123 49.7516 163.123 50.4111V50.4771Z"
          fill="#000000"/>
    <path d="M153.777 57.0283C153.557 57.0283 153.381 56.977 153.249 56.8744C153.132 56.7719 153.037 56.6399 152.963 56.4787L148.896 46.2781C148.867 46.2048 148.852 46.1316 148.852 46.0583C148.852 45.9264 148.896 45.8164 148.984 45.7285C149.072 45.6406 149.182 45.5966 149.314 45.5966H150.369C150.53 45.5966 150.655 45.6406 150.743 45.7285C150.831 45.8164 150.882 45.8971 150.897 45.9703L154.26 54.6321L157.602 45.9703C157.631 45.8971 157.683 45.8164 157.756 45.7285C157.844 45.6406 157.968 45.5966 158.13 45.5966H159.207C159.324 45.5966 159.427 45.6406 159.515 45.7285C159.617 45.8164 159.668 45.9264 159.668 46.0583C159.668 46.1316 159.654 46.2048 159.624 46.2781L155.535 56.4787C155.477 56.6399 155.382 56.7719 155.25 56.8744C155.132 56.977 154.956 57.0283 154.722 57.0283H153.777Z"
          fill="#000000"/>
    <path d="M142.433 57.2482C140.924 57.2482 139.722 56.7865 138.828 55.8632C137.934 54.9252 137.443 53.6501 137.355 52.038C137.34 51.8474 137.333 51.6056 137.333 51.3125C137.333 51.0047 137.34 50.7555 137.355 50.565C137.413 49.5244 137.655 48.6158 138.08 47.839C138.505 47.0476 139.084 46.4393 139.817 46.0143C140.564 45.5893 141.436 45.3768 142.433 45.3768C143.547 45.3768 144.478 45.6113 145.225 46.0803C145.987 46.5493 146.566 47.2161 146.962 48.0808C147.358 48.9455 147.555 49.9568 147.555 51.1146V51.4884C147.555 51.6496 147.504 51.7741 147.401 51.8621C147.314 51.95 147.196 51.994 147.05 51.994H139.443C139.443 52.0086 139.443 52.038 139.443 52.0819C139.443 52.1259 139.443 52.1625 139.443 52.1918C139.473 52.7927 139.604 53.357 139.839 53.8846C140.073 54.3976 140.411 54.8153 140.85 55.1377C141.29 55.4601 141.818 55.6214 142.433 55.6214C142.961 55.6214 143.4 55.5408 143.752 55.3795C144.104 55.2183 144.39 55.0424 144.61 54.8519C144.829 54.6467 144.976 54.4928 145.049 54.3903C145.181 54.1997 145.284 54.0898 145.357 54.0605C145.43 54.0165 145.547 53.9945 145.709 53.9945H146.764C146.911 53.9945 147.028 54.0385 147.116 54.1264C147.218 54.1997 147.262 54.3096 147.248 54.4562C147.233 54.676 147.116 54.9472 146.896 55.2696C146.676 55.5774 146.361 55.8852 145.951 56.1929C145.54 56.5007 145.042 56.7572 144.456 56.9624C143.869 57.1529 143.195 57.2482 142.433 57.2482ZM139.443 50.4771H145.467V50.4111C145.467 49.7516 145.342 49.1654 145.093 48.6524C144.859 48.1394 144.514 47.7364 144.06 47.4433C143.606 47.1355 143.063 46.9816 142.433 46.9816C141.803 46.9816 141.261 47.1355 140.806 47.4433C140.367 47.7364 140.029 48.1394 139.795 48.6524C139.56 49.1654 139.443 49.7516 139.443 50.4111V50.4771Z"
          fill="#000000"/>
    <path d="M119.625 57.0283C119.478 57.0283 119.354 56.9844 119.251 56.8964C119.163 56.7939 119.119 56.6693 119.119 56.5227V41.9253C119.119 41.7787 119.163 41.6615 119.251 41.5735C119.354 41.4709 119.478 41.4196 119.625 41.4196H120.724C120.885 41.4196 121.01 41.4709 121.098 41.5735C121.186 41.6615 121.23 41.7787 121.23 41.9253V47.0476C121.625 46.5493 122.109 46.1462 122.681 45.8384C123.252 45.5307 123.978 45.3768 124.857 45.3768C125.81 45.3768 126.616 45.5893 127.275 46.0143C127.949 46.4247 128.455 47.0036 128.792 47.7511C129.144 48.4839 129.32 49.3412 129.32 50.3232V56.5227C129.32 56.6693 129.276 56.7939 129.188 56.8964C129.1 56.9844 128.975 57.0283 128.814 57.0283H127.715C127.568 57.0283 127.444 56.9844 127.341 56.8964C127.253 56.7939 127.209 56.6693 127.209 56.5227V50.4331C127.209 49.4072 126.96 48.6084 126.462 48.0369C125.963 47.4506 125.231 47.1575 124.263 47.1575C123.355 47.1575 122.622 47.4506 122.065 48.0369C121.508 48.6084 121.23 49.4072 121.23 50.4331V56.5227C121.23 56.6693 121.186 56.7939 121.098 56.8964C121.01 56.9844 120.885 57.0283 120.724 57.0283H119.625Z"
          fill="#000000"/>
    <path d="M114.972 57.0283C114.152 57.0283 113.485 56.8745 112.972 56.5667C112.459 56.2442 112.085 55.7972 111.851 55.2257C111.616 54.6394 111.499 53.9506 111.499 53.1591V47.3553H109.784C109.638 47.3553 109.513 47.3114 109.41 47.2234C109.322 47.1208 109.278 46.9963 109.278 46.8497V46.1023C109.278 45.9557 109.322 45.8384 109.41 45.7505C109.513 45.6479 109.638 45.5966 109.784 45.5966H111.499V41.9253C111.499 41.7787 111.543 41.6615 111.631 41.5735C111.733 41.4709 111.858 41.4196 112.004 41.4196H113.038C113.184 41.4196 113.302 41.4709 113.389 41.5735C113.492 41.6615 113.543 41.7787 113.543 41.9253V45.5966H116.269C116.416 45.5966 116.533 45.6479 116.621 45.7505C116.724 45.8384 116.775 45.9557 116.775 46.1023V46.8497C116.775 46.9963 116.724 47.1208 116.621 47.2234C116.533 47.3114 116.416 47.3553 116.269 47.3553H113.543V53.0053C113.543 53.6941 113.661 54.2364 113.895 54.6321C114.13 55.0278 114.547 55.2257 115.148 55.2257H116.489C116.636 55.2257 116.753 55.2769 116.841 55.3795C116.944 55.4675 116.995 55.5847 116.995 55.7313V56.5227C116.995 56.6693 116.944 56.7939 116.841 56.8964C116.753 56.9844 116.636 57.0283 116.489 57.0283H114.972Z"
          fill="#000000"/>
    <path d="M105.691 57.0283C105.545 57.0283 105.42 56.9844 105.318 56.8964C105.23 56.7939 105.186 56.6693 105.186 56.5227V41.9253C105.186 41.7787 105.23 41.6615 105.318 41.5735C105.42 41.4709 105.545 41.4196 105.691 41.4196H106.725C106.886 41.4196 107.01 41.4709 107.098 41.5735C107.186 41.6615 107.23 41.7787 107.23 41.9253V56.5227C107.23 56.6693 107.186 56.7939 107.098 56.8964C107.01 56.9844 106.886 57.0283 106.725 57.0283H105.691Z"
          fill="#000000"/>
    <path d="M96.2216 57.2482C95.4888 57.2482 94.822 57.1016 94.2211 56.8085C93.6202 56.5154 93.1365 56.1197 92.7701 55.6214C92.4037 55.1231 92.2205 54.5588 92.2205 53.9286C92.2205 52.9173 92.6309 52.1112 93.4516 51.5103C94.2724 50.9094 95.3423 50.5137 96.6613 50.3232L99.9369 49.8615V49.224C99.9369 48.5205 99.7318 47.9709 99.3214 47.5752C98.9257 47.1795 98.2735 46.9816 97.3648 46.9816C96.7053 46.9816 96.1703 47.1135 95.76 47.3773C95.3642 47.6411 95.0858 47.9782 94.9246 48.3886C94.8366 48.6084 94.6827 48.7184 94.4629 48.7184H93.4736C93.3124 48.7184 93.1878 48.6744 93.0999 48.5865C93.0266 48.4839 92.99 48.3666 92.99 48.2347C92.99 48.0149 93.0706 47.7437 93.2318 47.4213C93.4077 47.0989 93.6715 46.7838 94.0232 46.476C94.375 46.1682 94.822 45.9117 95.3643 45.7065C95.9212 45.4867 96.5954 45.3768 97.3868 45.3768C98.2661 45.3768 99.0063 45.494 99.6072 45.7285C100.208 45.9484 100.677 46.2488 101.014 46.6299C101.366 47.0109 101.615 47.4433 101.762 47.9269C101.923 48.4106 102.003 48.9016 102.003 49.3999V56.5227C102.003 56.6693 101.952 56.7938 101.85 56.8964C101.762 56.9844 101.644 57.0283 101.498 57.0283H100.487C100.325 57.0283 100.201 56.9844 100.113 56.8964C100.025 56.7938 99.9809 56.6693 99.9809 56.5227V55.5774C99.7904 55.8412 99.5339 56.105 99.2115 56.3688C98.889 56.618 98.486 56.8305 98.0023 57.0064C97.5187 57.1676 96.9251 57.2482 96.2216 57.2482ZM96.6833 55.5994C97.2842 55.5994 97.8338 55.4748 98.3321 55.2256C98.8304 54.9618 99.2188 54.5588 99.4973 54.0165C99.7904 53.4742 99.9369 52.7927 99.9369 51.972V51.3564L97.3868 51.7302C96.3462 51.8767 95.5621 52.1259 95.0345 52.4776C94.5069 52.8147 94.2431 53.2471 94.2431 53.7747C94.2431 54.1851 94.3603 54.5295 94.5948 54.808C94.844 55.0718 95.1517 55.2696 95.5181 55.4015C95.8992 55.5334 96.2876 55.5994 96.6833 55.5994Z"
          fill="#000000"/>
    <path d="M85.283 57.2482C83.7734 57.2482 82.5716 56.7865 81.6776 55.8632C80.7836 54.9252 80.2926 53.6501 80.2047 52.038C80.19 51.8474 80.1827 51.6056 80.1827 51.3125C80.1827 51.0047 80.19 50.7555 80.2047 50.565C80.2633 49.5244 80.5051 48.6158 80.9301 47.839C81.3552 47.0476 81.9341 46.4393 82.6669 46.0143C83.4143 45.5893 84.2864 45.3768 85.283 45.3768C86.3968 45.3768 87.3275 45.6113 88.075 46.0803C88.8371 46.5493 89.416 47.2161 89.8117 48.0808C90.2074 48.9455 90.4053 49.9568 90.4053 51.1146V51.4884C90.4053 51.6496 90.354 51.7741 90.2514 51.8621C90.1635 51.95 90.0462 51.994 89.8997 51.994H82.2931C82.2931 52.0086 82.2931 52.038 82.2931 52.0819C82.2931 52.1259 82.2931 52.1625 82.2931 52.1918C82.3225 52.7927 82.4544 53.357 82.6889 53.8846C82.9234 54.3976 83.2604 54.8153 83.7001 55.1377C84.1398 55.4601 84.6674 55.6214 85.283 55.6214C85.8106 55.6214 86.2503 55.5408 86.602 55.3795C86.9538 55.2183 87.2396 55.0424 87.4594 54.8519C87.6793 54.6467 87.8258 54.4928 87.8991 54.3903C88.031 54.1997 88.1336 54.0898 88.2069 54.0605C88.2802 54.0165 88.3974 53.9945 88.5586 53.9945H89.6139C89.7604 53.9945 89.8777 54.0385 89.9656 54.1264C90.0682 54.1997 90.1122 54.3096 90.0975 54.4562C90.0828 54.676 89.9656 54.9472 89.7458 55.2696C89.5259 55.5774 89.2108 55.8852 88.8004 56.1929C88.3901 56.5007 87.8918 56.7572 87.3055 56.9624C86.7193 57.1529 86.0451 57.2482 85.283 57.2482ZM82.2931 50.4771H88.3168V50.4111C88.3168 49.7516 88.1922 49.1654 87.9431 48.6524C87.7086 48.1394 87.3641 47.7364 86.9098 47.4433C86.4555 47.1355 85.9132 46.9816 85.283 46.9816C84.6528 46.9816 84.1105 47.1355 83.6562 47.4433C83.2165 47.7364 82.8794 48.1394 82.6449 48.6524C82.4104 49.1654 82.2931 49.7516 82.2931 50.4111V50.4771Z"
          fill="#000000"/>
    <path d="M66.4407 57.0283C66.2502 57.0283 66.1036 56.9844 66.0011 56.8964C65.8985 56.7938 65.8105 56.6546 65.7372 56.4787L62.6155 46.2781C62.5862 46.2048 62.5715 46.1316 62.5715 46.0583C62.5715 45.9264 62.6155 45.8164 62.7034 45.7285C62.806 45.6406 62.916 45.5966 63.0332 45.5966H64.0005C64.1617 45.5966 64.2863 45.6406 64.3742 45.7285C64.4622 45.8164 64.5208 45.8971 64.5501 45.9703L66.9903 54.2583L69.6064 46.0583C69.6358 45.9557 69.6944 45.8531 69.7823 45.7505C69.8849 45.6479 70.0315 45.5966 70.222 45.5966H70.9695C71.16 45.5966 71.3066 45.6479 71.4091 45.7505C71.5117 45.8531 71.5704 45.9557 71.585 46.0583L74.2011 54.2583L76.6414 45.9703C76.656 45.8971 76.7073 45.8164 76.7952 45.7285C76.8832 45.6406 77.0078 45.5966 77.169 45.5966H78.1363C78.2682 45.5966 78.3781 45.6406 78.466 45.7285C78.554 45.8164 78.5979 45.9264 78.5979 46.0583C78.5979 46.1316 78.5833 46.2048 78.554 46.2781L75.4322 56.4787C75.3883 56.6546 75.3077 56.7938 75.1904 56.8964C75.0878 56.9844 74.9339 57.0283 74.7287 57.0283H73.8714C73.6808 57.0283 73.5196 56.9844 73.3877 56.8964C73.2705 56.7938 73.1899 56.6546 73.1459 56.4787L70.5957 48.6084L68.0456 56.4787C67.9869 56.6546 67.899 56.7938 67.7818 56.8964C67.6645 56.9844 67.5033 57.0283 67.2981 57.0283H66.4407Z"
          fill="#000000"/>
    <path d="M49.6359 57.2482C48.8299 57.2482 48.1337 57.109 47.5474 56.8305C46.9612 56.5374 46.4776 56.149 46.0965 55.6653C45.7301 55.167 45.4516 54.6028 45.2611 53.9726C45.0852 53.3423 44.9826 52.6755 44.9533 51.972C44.9387 51.7375 44.9313 51.5177 44.9313 51.3125C44.9313 51.1073 44.9387 50.8875 44.9533 50.653C44.9826 49.9641 45.0852 49.3046 45.2611 48.6744C45.4516 48.0442 45.7301 47.4799 46.0965 46.9816C46.4776 46.4833 46.9612 46.0949 47.5474 45.8165C48.1337 45.5233 48.8299 45.3768 49.6359 45.3768C50.5006 45.3768 51.2188 45.5307 51.7904 45.8384C52.362 46.1462 52.831 46.5273 53.1974 46.9816V41.9253C53.1974 41.7787 53.2413 41.6615 53.3293 41.5735C53.4319 41.4709 53.5564 41.4196 53.703 41.4196H54.7582C54.9048 41.4196 55.022 41.4709 55.11 41.5735C55.2126 41.6615 55.2639 41.7787 55.2639 41.9253V56.5227C55.2639 56.6693 55.2126 56.7939 55.11 56.8964C55.022 56.9844 54.9048 57.0283 54.7582 57.0283H53.7689C53.6077 57.0283 53.4832 56.9844 53.3952 56.8964C53.3073 56.7939 53.2633 56.6693 53.2633 56.5227V55.5994C52.8969 56.0684 52.4206 56.4641 51.8343 56.7865C51.2481 57.0943 50.5153 57.2482 49.6359 57.2482ZM50.0976 55.4675C50.8304 55.4675 51.4166 55.2989 51.8563 54.9618C52.296 54.6248 52.6258 54.1997 52.8456 53.6868C53.0655 53.1591 53.1827 52.6242 53.1974 52.0819C53.212 51.8474 53.2193 51.569 53.2193 51.2465C53.2193 50.9094 53.212 50.6236 53.1974 50.3891C53.1827 49.8762 53.0581 49.3706 52.8236 48.8722C52.6038 48.3739 52.2667 47.9636 51.8124 47.6411C51.3727 47.3187 50.8011 47.1575 50.0976 47.1575C49.3501 47.1575 48.7566 47.326 48.3169 47.6631C47.8772 47.9856 47.5621 48.4179 47.3716 48.9602C47.181 49.4878 47.0711 50.0594 47.0418 50.6749C47.0272 51.1 47.0272 51.525 47.0418 51.95C47.0711 52.5656 47.181 53.1445 47.3716 53.6868C47.5621 54.2144 47.8772 54.6467 48.3169 54.9838C48.7566 55.3063 49.3501 55.4675 50.0976 55.4675Z"
          fill="#000000"/>
    <path d="M40.6408 57.0283C40.4943 57.0283 40.3697 56.9844 40.2671 56.8964C40.1792 56.7939 40.1352 56.6693 40.1352 56.5227V41.9253C40.1352 41.7787 40.1792 41.6615 40.2671 41.5735C40.3697 41.4709 40.4943 41.4196 40.6408 41.4196H41.6741C41.8353 41.4196 41.9599 41.4709 42.0478 41.5735C42.1357 41.6615 42.1797 41.7787 42.1797 41.9253V56.5227C42.1797 56.6693 42.1357 56.7939 42.0478 56.8964C41.9599 56.9844 41.8353 57.0283 41.6741 57.0283H40.6408Z"
          fill="#000000"/>
    <path d="M35.2946 57.0283C35.148 57.0283 35.0234 56.9844 34.9208 56.8964C34.8329 56.7938 34.7889 56.6693 34.7889 56.5227V46.1022C34.7889 45.9557 34.8329 45.8384 34.9208 45.7505C35.0234 45.6479 35.148 45.5966 35.2946 45.5966H36.3498C36.4964 45.5966 36.6136 45.6479 36.7016 45.7505C36.7895 45.8384 36.8335 45.9557 36.8335 46.1022V56.5227C36.8335 56.6693 36.7895 56.7938 36.7016 56.8964C36.6136 56.9844 36.4964 57.0283 36.3498 57.0283H35.2946ZM35.1187 43.4641C34.9721 43.4641 34.8476 43.4202 34.745 43.3322C34.657 43.2296 34.6131 43.1051 34.6131 42.9585V41.7714C34.6131 41.6248 34.657 41.5076 34.745 41.4196C34.8476 41.317 34.9721 41.2657 35.1187 41.2657H36.5037C36.6503 41.2657 36.7675 41.317 36.8554 41.4196C36.958 41.5076 37.0093 41.6248 37.0093 41.7714V42.9585C37.0093 43.1051 36.958 43.2296 36.8554 43.3322C36.7675 43.4202 36.6503 43.4641 36.5037 43.4641H35.1187Z"
          fill="#000000"/>
    <path d="M25.829 57.2482C24.891 57.2482 24.0923 57.043 23.4328 56.6326C22.7879 56.2076 22.2969 55.6214 21.9598 54.8739C21.6227 54.1264 21.4542 53.2691 21.4542 52.3018V46.1022C21.4542 45.9557 21.4982 45.8384 21.5861 45.7505C21.6887 45.6479 21.8133 45.5966 21.9598 45.5966H23.059C23.2056 45.5966 23.3228 45.6479 23.4108 45.7505C23.5134 45.8384 23.5647 45.9557 23.5647 46.1022V52.1918C23.5647 54.3756 24.5173 55.4675 26.4226 55.4675C27.3313 55.4675 28.0568 55.1817 28.599 54.6101C29.156 54.0238 29.4344 53.2178 29.4344 52.1918V46.1022C29.4344 45.9557 29.4784 45.8384 29.5663 45.7505C29.6689 45.6479 29.7935 45.5966 29.9401 45.5966H31.0173C31.1785 45.5966 31.3031 45.6479 31.391 45.7505C31.4789 45.8384 31.5229 45.9557 31.5229 46.1022V56.5227C31.5229 56.6693 31.4789 56.7938 31.391 56.8964C31.3031 56.9844 31.1785 57.0283 31.0173 57.0283H30.006C29.8594 57.0283 29.7349 56.9844 29.6323 56.8964C29.5443 56.7938 29.5004 56.6693 29.5004 56.5227V55.5554C29.1047 56.0684 28.621 56.4787 28.0494 56.7865C27.4925 57.0943 26.7524 57.2482 25.829 57.2482Z"
          fill="#000000"/>
    <path d="M7.67086 57.0283C7.50964 57.0283 7.38506 56.9844 7.29713 56.8964C7.20919 56.7938 7.16522 56.6693 7.16522 56.5227V42.1671C7.16522 42.0059 7.20919 41.8813 7.29713 41.7934C7.38506 41.6908 7.50964 41.6395 7.67086 41.6395H13.6945C14.7937 41.6395 15.6877 41.8227 16.3766 42.1891C17.0801 42.5408 17.593 43.0245 17.9154 43.64C18.2525 44.2556 18.4211 44.9444 18.4211 45.7065C18.4211 46.3074 18.3185 46.8277 18.1133 47.2674C17.9228 47.6924 17.681 48.0442 17.3878 48.3226C17.0947 48.5864 16.8089 48.7916 16.5304 48.9382C17.102 49.2167 17.6077 49.671 18.0474 50.3012C18.5017 50.9314 18.7289 51.6935 18.7289 52.5876C18.7289 53.3936 18.5457 54.1338 18.1793 54.808C17.8129 55.4821 17.2633 56.0244 16.5304 56.4348C15.8123 56.8305 14.9183 57.0283 13.8484 57.0283H7.67086ZM9.31966 55.2476H13.5626C14.5152 55.2476 15.248 54.9912 15.761 54.4782C16.274 53.9652 16.5304 53.335 16.5304 52.5876C16.5304 51.8108 16.274 51.1732 15.761 50.6749C15.248 50.162 14.5152 49.9055 13.5626 49.9055H9.31966V55.2476ZM9.31966 48.1468H13.3647C14.3027 48.1468 15.0135 47.9343 15.4972 47.5092C15.9808 47.0695 16.2227 46.476 16.2227 45.7285C16.2227 44.9811 15.9808 44.4095 15.4972 44.0138C15.0135 43.618 14.3027 43.4202 13.3647 43.4202H9.31966V48.1468Z"
          fill="#000000"/>
</svg>
